<svg width="14" height="18" viewBox="0 0 14 18" fill="none" xmlns="http://www.w3.org/2000/svg">
<path fill-rule="evenodd" clip-rule="evenodd" d="M6 1C6 0.44772 6.44772 0 7 0C7.5523 0 8 0.44772 8 1V2C8 2.03342 7.9984 2.06646 7.9952 2.09904C10.2798 2.56044 12 4.57933 12 7V9.382L12.4223 9.5931C13.3892 10.0766 14 11.0648 14 12.1459C14 13.7222 12.7222 15 11.1459 15H2.8541C1.27783 15 0 13.7222 0 12.1459C0 11.0648 0.61078 10.0766 1.57771 9.5931L2 9.382V7C2 4.57933 3.72019 2.56044 6.00484 2.09904C6.00164 2.06646 6 2.03342 6 2V1ZM4 7C4 5.34315 5.34315 4 7 4C8.6569 4 10 5.34315 10 7V10C10 10.3788 10.214 10.725 10.5528 10.8944L11.5279 11.382C11.8172 11.5266 12 11.8224 12 12.1459C12 12.6176 11.6176 13 11.1459 13H2.8541C2.38239 13 2 12.6176 2 12.1459C2 11.8224 2.18278 11.5266 2.47214 11.382L3.44721 10.8944C3.786 10.725 4 10.3788 4 10V7Z" fill="white"/>
<path d="M6 16C5.44772 16 5 16.4477 5 17C5 17.5523 5.44772 18 6 18H8C8.5523 18 9 17.5523 9 17C9 16.4477 8.5523 16 8 16H6Z" fill="white"/>
</svg>
