<svg width="16" height="16" viewBox="0 0 16 16" fill="none" xmlns="http://www.w3.org/2000/svg">
<path fill-rule="evenodd" clip-rule="evenodd" d="M0 2C0 0.89543 0.89543 0 2 0H5C6.10457 0 7 0.89543 7 2V5C7 6.10457 6.10457 7 5 7H2C0.89543 7 0 6.10457 0 5V2ZM5 2H2V5H5V2Z" fill="white"/>
<path fill-rule="evenodd" clip-rule="evenodd" d="M0 11C0 9.8954 0.89543 9 2 9H5C6.10457 9 7 9.8954 7 11V14C7 15.1046 6.10457 16 5 16H2C0.89543 16 0 15.1046 0 14V11ZM5 11H2V14H5V11Z" fill="white"/>
<path fill-rule="evenodd" clip-rule="evenodd" d="M9 2C9 0.89543 9.8954 0 11 0H14C15.1046 0 16 0.89543 16 2V5C16 6.10457 15.1046 7 14 7H11C9.8954 7 9 6.10457 9 5V2ZM14 2H11V5H14V2Z" fill="white"/>
<path fill-rule="evenodd" clip-rule="evenodd" d="M9 11C9 9.8954 9.8954 9 11 9H14C15.1046 9 16 9.8954 16 11V14C16 15.1046 15.1046 16 14 16H11C9.8954 16 9 15.1046 9 14V11ZM14 11H11V14H14V11Z" fill="white"/>
</svg>
