<svg width="14" height="12" viewBox="0 0 14 12" fill="none" xmlns="http://www.w3.org/2000/svg">
<path d="M13.7071 5.29285C14.0976 5.68347 14.0976 6.3165 13.7071 6.7072L9.70711 10.7072C9.31658 11.0977 8.68342 11.0977 8.29289 10.7072C7.90237 10.3165 7.90237 9.6835 8.29289 9.2928L10.5858 7L5 7C4.4477 7 4 6.5522 4 6C4 5.44775 4.4477 5 5 5L10.5858 5L8.29289 2.70715C7.90237 2.31653 7.90237 1.68347 8.29289 1.29285C8.68342 0.90234 9.31658 0.90234 9.70711 1.29285L13.7071 5.29285Z" fill="white"/>
<path d="M1 -5.68248e-07C1.5523 -5.44106e-07 2 0.447749 2 0.999999L2 11C2 11.5522 1.5523 12 0.999999 12C0.4477 12 -5.04963e-07 11.5522 -4.80825e-07 11L-4.37114e-08 0.999999C-1.95718e-08 0.447749 0.447701 -5.9239e-07 1 -5.68248e-07Z" fill="white"/>
<path d="M5 11C5 11.5523 4.55225 12 4 12L0.999999 12C0.4477 12 -5.04963e-07 11.5522 -4.80825e-07 11C-4.56683e-07 10.4477 0.4478 10 1 10L4 10C4.55225 10 5 10.4477 5 11Z" fill="white"/>
<path d="M5 1C5 1.5523 4.55225 2 4 2L1 2C0.447801 2 -6.78532e-08 1.5523 -4.37114e-08 0.999999C-1.95718e-08 0.447749 0.447701 -5.9239e-07 1 -5.68248e-07L4 1.74846e-07C4.55225 2.23125e-07 5 0.447701 5 1Z" fill="white"/>
</svg>
