<svg width="15" height="16" viewBox="0 0 15 16" fill="none" xmlns="http://www.w3.org/2000/svg">
<path fill-rule="evenodd" clip-rule="evenodd" d="M8.5 0H3.5C1.84314 0 0.5 1.34315 0.5 3V13C0.5 14.6569 1.84314 16 3.5 16H11.5C13.1569 16 14.5 14.6569 14.5 13V7C14.5 6.76607 14.418 6.53953 14.2682 6.35982L9.2682 0.35982C9.0782 0.13182 8.7968 0 8.5 0ZM3.5 2H7.5V6C7.5 7.10457 8.3954 8 9.5 8H12.5V13C12.5 13.5523 12.0523 14 11.5 14H3.5C2.94769 14 2.5 13.5523 2.5 13V3C2.5 2.44772 2.94769 2 3.5 2ZM11.3649 6L9.5 3.76205V6H11.3649Z" fill="#858B8F"/>
</svg>
