<svg width="18" height="21" viewBox="0 0 18 21" fill="none" xmlns="http://www.w3.org/2000/svg">
<path d="M15.923 6.34607V3.57686C15.9241 3.39281 15.8518 3.21602 15.7223 3.08528L13.6454 1.00837C13.5146 0.878869 13.3378 0.806545 13.1538 0.807629H6.92305C6.73946 0.807629 6.56329 0.88057 6.43349 1.01038C6.30368 1.14018 6.23074 1.31635 6.23074 1.49993V6.34607H5.4139C5.27096 5.94212 5.00671 5.59209 4.65715 5.34424C4.3076 5.09637 3.89004 4.9627 3.46152 4.96146H2.07691C1.526 4.96146 0.997829 5.18028 0.608239 5.5697C0.218816 5.95928 0 6.48746 0 7.03838V18.1153C0 18.6662 0.218816 19.1943 0.608239 19.5839C0.997817 19.9734 1.526 20.1922 2.07691 20.1922H3.46152C3.89004 20.1909 4.3076 20.0573 4.65715 19.8094C5.0067 19.5615 5.27097 19.2115 5.4139 18.8076H15.9231C16.474 18.8076 17.0022 18.5888 17.3918 18.1993C17.7812 17.8097 18 17.2816 18 16.7307V8.423C18 7.87208 17.7812 7.34391 17.3918 6.95432C17.0022 6.5649 16.474 6.34608 15.9231 6.34608L15.923 6.34607ZM7.61536 2.19225H12.8698L14.5382 3.86074V6.34607H7.6152L7.61536 2.19225ZM4.15384 18.1153C4.15384 18.2988 4.08089 18.475 3.95109 18.6048C3.82128 18.7346 3.64511 18.8076 3.46153 18.8076H2.07692C1.89334 18.8076 1.71717 18.7346 1.58736 18.6048C1.45756 18.475 1.38462 18.2988 1.38462 18.1153V7.03838C1.38462 6.8548 1.45756 6.67863 1.58736 6.54882C1.71717 6.41902 1.89334 6.34607 2.07692 6.34607H3.46153C3.64511 6.34607 3.82128 6.41902 3.95109 6.54882C4.08089 6.67863 4.15384 6.8548 4.15384 7.03838V18.1153ZM16.6153 16.7306C16.6153 16.9142 16.5424 17.0904 16.4126 17.2202C16.2828 17.35 16.1066 17.4229 15.923 17.4229H5.53845V7.73068H15.923C16.1066 7.73068 16.2828 7.80362 16.4126 7.93343C16.5424 8.06324 16.6153 8.2394 16.6153 8.42299V16.7306ZM8.99997 12.5768C8.99997 12.7604 8.92703 12.9366 8.79722 13.0664C8.66742 13.1962 8.49125 13.2691 8.30766 13.2691C8.12408 13.2691 7.94791 13.1962 7.81811 13.0664C7.6883 12.9366 7.61536 12.7604 7.61536 12.5768C7.61536 12.3932 7.6883 12.2171 7.81811 12.0873C7.94791 11.9575 8.12408 11.8845 8.30766 11.8845C8.49125 11.8845 8.66742 11.9575 8.79722 12.0873C8.92703 12.2171 8.99997 12.3932 8.99997 12.5768ZM11.7692 12.5768C11.7692 12.7604 11.6962 12.9366 11.5664 13.0664C11.4366 13.1962 11.2605 13.2691 11.0769 13.2691C10.8933 13.2691 10.7171 13.1962 10.5873 13.0664C10.4575 12.9366 10.3846 12.7604 10.3846 12.5768C10.3846 12.3932 10.4575 12.2171 10.5873 12.0873C10.7171 11.9575 10.8933 11.8845 11.0769 11.8845C11.2605 11.8845 11.4366 11.9575 11.5664 12.0873C11.6962 12.2171 11.7692 12.3932 11.7692 12.5768ZM14.5384 12.5768C14.5384 12.7604 14.4655 12.9366 14.3357 13.0664C14.2059 13.1962 14.0297 13.2691 13.8461 13.2691C13.6625 13.2691 13.4863 13.1962 13.3565 13.0664C13.2267 12.9366 13.1538 12.7604 13.1538 12.5768C13.1538 12.3932 13.2267 12.2171 13.3565 12.0873C13.4863 11.9575 13.6625 11.8845 13.8461 11.8845C14.0297 11.8845 14.2059 11.9575 14.3357 12.0873C14.4655 12.2171 14.5384 12.3932 14.5384 12.5768ZM8.99997 15.346C8.99997 15.5296 8.92703 15.7058 8.79722 15.8356C8.66742 15.9654 8.49125 16.0383 8.30766 16.0383C8.12408 16.0383 7.94791 15.9654 7.81811 15.8356C7.6883 15.7058 7.61536 15.5296 7.61536 15.346C7.61536 15.1625 7.6883 14.9863 7.81811 14.8565C7.94791 14.7267 8.12408 14.6537 8.30766 14.6537C8.49125 14.6537 8.66742 14.7267 8.79722 14.8565C8.92703 14.9863 8.99997 15.1625 8.99997 15.346ZM11.7692 15.346C11.7692 15.5296 11.6962 15.7058 11.5664 15.8356C11.4366 15.9654 11.2605 16.0383 11.0769 16.0383C10.8933 16.0383 10.7171 15.9654 10.5873 15.8356C10.4575 15.7058 10.3846 15.5296 10.3846 15.346C10.3846 15.1625 10.4575 14.9863 10.5873 14.8565C10.7171 14.7267 10.8933 14.6537 11.0769 14.6537C11.2605 14.6537 11.4366 14.7267 11.5664 14.8565C11.6962 14.9863 11.7692 15.1625 11.7692 15.346ZM14.5384 15.346C14.5384 15.5296 14.4655 15.7058 14.3357 15.8356C14.2059 15.9654 14.0297 16.0383 13.8461 16.0383C13.6625 16.0383 13.4863 15.9654 13.3565 15.8356C13.2267 15.7058 13.1538 15.5296 13.1538 15.346C13.1538 15.1625 13.2267 14.9863 13.3565 14.8565C13.4863 14.7267 13.6625 14.6537 13.8461 14.6537C14.0297 14.6537 14.2059 14.7267 14.3357 14.8565C14.4655 14.9863 14.5384 15.1625 14.5384 15.346ZM14.5384 9.8076C14.5384 9.99118 14.4655 10.1674 14.3357 10.2972C14.2059 10.427 14.0297 10.4999 13.8461 10.4999H8.30766C8.06026 10.4999 7.83171 10.3679 7.70809 10.1537C7.58446 9.93957 7.58446 9.67562 7.70809 9.46144C7.83171 9.24727 8.06027 9.11529 8.30766 9.11529H13.8461C14.0297 9.11529 14.2059 9.18823 14.3357 9.31804C14.4655 9.44784 14.5384 9.62401 14.5384 9.8076Z" fill="#936c07"/>
</svg>
