<svg xmlns="http://www.w3.org/2000/svg" width="35" height="35" viewBox="0 0 35 35">
  <g id="icon-social-twitter" transform="translate(0.5 0.5)">
    <path id="path" d="M265.84,248.09a17,17,0,1,0-17-17,17,17,0,0,0,17,17" transform="translate(-248.84 -214.09)" fill="none" stroke="#ffc72e" stroke-width="1"/>
    <path id="path-2" data-name="path" d="M274.37,226.63a7,7,0,0,1-2,.55,3.5,3.5,0,0,0,1.54-1.93,7,7,0,0,1-2.22.85,3.5,3.5,0,0,0-6,3.19,9.92,9.92,0,0,1-7.2-3.65,3.5,3.5,0,0,0,1.08,4.67,3.5,3.5,0,0,1-1.58-.44h0a3.5,3.5,0,0,0,2.8,3.43,3.411,3.411,0,0,1-.921.12,3.458,3.458,0,0,1-.66-.06,3.5,3.5,0,0,0,3.26,2.43,7.07,7.07,0,0,1-5.17,1.45,9.94,9.94,0,0,0,15.3-8.37v-.45a7.09,7.09,0,0,0,1.74-1.81" transform="translate(-248.84 -214.09)" fill="#ffc72e"/>
  </g>
</svg>
