<svg xmlns="http://www.w3.org/2000/svg" xmlns:xlink="http://www.w3.org/1999/xlink" width="18px" height="18px" viewBox="0 0 18 18" version="1.1">
<g id="surface1">
<path fill="#347037" d="M 17.4375 1.40625 L 0.5625 1.40625 C 0.25 1.40625 0 1.65625 0 1.96875 L 0 16.03125 C 0 16.34375 0.25 16.59375 0.5625 16.59375 L 17.4375 16.59375 C 17.75 16.59375 18 16.34375 18 16.03125 L 18 1.96875 C 18 1.65625 17.75 1.40625 17.4375 1.40625 Z M 16.875 2.53125 L 16.875 4.78125 L 1.125 4.78125 L 1.125 2.53125 Z M 1.125 15.46875 L 1.125 5.90625 L 16.875 5.90625 L 16.875 15.46875 Z M 1.125 15.46875 "/>
<path fill="#347037" d="M 2.8125 4.21875 C 2.960938 4.21875 3.105469 4.160156 3.207031 4.050781 C 3.316406 3.949219 3.375 3.804688 3.375 3.65625 C 3.375 3.507812 3.316406 3.363281 3.207031 3.257812 C 3 3.050781 2.625 3.050781 2.414062 3.261719 C 2.308594 3.363281 2.25 3.503906 2.25 3.65625 C 2.25 3.808594 2.308594 3.949219 2.417969 4.054688 C 2.519531 4.160156 2.664062 4.21875 2.8125 4.21875 Z M 2.8125 4.21875 "/>
<path fill="#347037" d="M 4.5 4.21875 C 4.648438 4.21875 4.792969 4.160156 4.898438 4.050781 C 5.003906 3.949219 5.0625 3.804688 5.0625 3.65625 C 5.0625 3.507812 5.003906 3.363281 4.894531 3.257812 C 4.6875 3.050781 4.3125 3.050781 4.101562 3.261719 C 3.996094 3.363281 3.9375 3.507812 3.9375 3.65625 C 3.9375 3.804688 3.996094 3.949219 4.105469 4.054688 C 4.207031 4.160156 4.351562 4.21875 4.5 4.21875 Z M 4.5 4.21875 "/>
<path fill="#347037" d="M 6.1875 4.21875 C 6.339844 4.21875 6.480469 4.160156 6.582031 4.050781 C 6.691406 3.949219 6.75 3.808594 6.75 3.65625 C 6.75 3.507812 6.691406 3.363281 6.582031 3.257812 C 6.375 3.050781 6 3.050781 5.789062 3.261719 C 5.683594 3.363281 5.625 3.507812 5.625 3.65625 C 5.625 3.808594 5.683594 3.949219 5.792969 4.050781 C 5.894531 4.160156 6.039062 4.21875 6.1875 4.21875 Z M 6.1875 4.21875 "/>
<path fill="#347037" d="M 8.71875 7.03125 L 2.8125 7.03125 C 2.5 7.03125 2.25 7.28125 2.25 7.59375 C 2.25 7.90625 2.5 8.15625 2.8125 8.15625 L 8.71875 8.15625 C 9.03125 8.15625 9.28125 7.90625 9.28125 7.59375 C 9.28125 7.28125 9.03125 7.03125 8.71875 7.03125 Z M 8.71875 7.03125 "/>
<path fill="#347037" d="M 8.71875 9.28125 L 2.8125 9.28125 C 2.5 9.28125 2.25 9.53125 2.25 9.84375 C 2.25 10.15625 2.5 10.40625 2.8125 10.40625 L 8.71875 10.40625 C 9.03125 10.40625 9.28125 10.15625 9.28125 9.84375 C 9.28125 9.53125 9.03125 9.28125 8.71875 9.28125 Z M 8.71875 9.28125 "/>
<path fill="#347037" d="M 8.71875 11.53125 L 2.8125 11.53125 C 2.5 11.53125 2.25 11.78125 2.25 12.09375 C 2.25 12.40625 2.5 12.65625 2.8125 12.65625 L 8.71875 12.65625 C 9.03125 12.65625 9.28125 12.40625 9.28125 12.09375 C 9.28125 11.78125 9.03125 11.53125 8.71875 11.53125 Z M 8.71875 11.53125 "/>
<path fill="#347037" d="M 15.1875 7.03125 L 10.96875 7.03125 C 10.65625 7.03125 10.40625 7.28125 10.40625 7.59375 L 10.40625 12.09375 C 10.40625 12.40625 10.65625 12.65625 10.96875 12.65625 L 15.1875 12.65625 C 15.5 12.65625 15.75 12.40625 15.75 12.09375 L 15.75 7.59375 C 15.75 7.28125 15.5 7.03125 15.1875 7.03125 Z M 14.625 11.53125 L 11.53125 11.53125 L 11.53125 8.15625 L 14.625 8.15625 Z M 14.625 11.53125 "/>
</g>
</svg>
