<svg width="18" height="19" viewBox="0 0 18 19" fill="none" xmlns="http://www.w3.org/2000/svg">
<path fill-rule="evenodd" clip-rule="evenodd" d="M5.18119 1.25286L7.40213 4.57563C7.89474 5.31414 7.73302 6.3071 7.03285 6.8511L5.99261 7.65813C6.13603 7.92 6.27623 8.17148 6.5137 8.50662C6.82027 8.93928 7.29674 9.5185 8.12655 10.3471C8.95591 11.1754 9.53626 11.6502 9.96996 11.9554C10.3087 12.1939 10.5618 12.3333 10.8271 12.4775L11.6381 11.4377C12.1834 10.7395 13.1749 10.5792 13.9121 11.0684L17.2444 13.284C17.9972 13.7845 18.2248 14.7886 17.7581 15.5646L16.9241 16.9511C16.5713 17.5461 16.0034 17.9827 15.3381 18.1716L15.3289 18.1742C14.5628 18.3838 13.1369 18.7176 11.2259 18.3004C9.31926 17.8843 7.02933 16.7437 4.46599 14.1871C1.9023 11.6302 0.718397 9.30616 0.253707 7.37091C-0.21158 5.4332 0.0638777 3.96691 0.284457 3.16481L0.287047 3.15541C0.476987 2.49015 0.915507 1.9237 1.51118 1.57236L2.90131 0.740598C3.67557 0.277503 4.67896 0.50149 5.18119 1.25286ZM3.6797 2.60554L2.52825 3.29448C2.37402 3.38511 2.26096 3.53062 2.21134 3.7007C2.0511 4.28541 1.83553 5.39264 2.19843 6.90394C2.56307 8.42252 3.5314 10.4303 5.87833 12.771C8.22559 15.1121 10.1876 16.0267 11.6524 16.3465C13.1086 16.6643 14.1718 16.417 14.7956 16.2466C14.9679 16.1966 15.1139 16.0831 15.2043 15.9301L15.2084 15.9233L15.8921 14.7866L13.041 12.891L12.248 13.9077L12.246 13.9102C11.7353 14.5693 10.8202 14.7572 10.0909 14.3545L10.0892 14.3535C10.0379 14.3251 9.98286 14.2952 9.92416 14.2634C9.64136 14.1101 9.27226 13.9102 8.81875 13.5909C8.2692 13.2041 7.60154 12.6493 6.71331 11.7623C5.82553 10.8758 5.2697 10.2103 4.88184 9.66293C4.55975 9.20835 4.35876 8.84 4.20424 8.55681C4.17308 8.49971 4.14381 8.44607 4.11582 8.39589L4.11485 8.39414C3.70909 7.6632 3.89978 6.74706 4.56071 6.23771L5.57927 5.44749L3.6797 2.60554Z" fill="#680cb0"/>
</svg>
