<svg width="18" height="15" viewBox="0 0 18 15" fill="none" xmlns="http://www.w3.org/2000/svg">
<path fill-rule="evenodd" clip-rule="evenodd" d="M3 0.5C1.34315 0.5 0 1.84315 0 3.5V11.5C0 13.1569 1.34315 14.5 3 14.5H15C16.6569 14.5 18 13.1569 18 11.5V3.5C18 1.84315 16.6569 0.5 15 0.5H3ZM2.29508 2.79071C2.47587 2.61103 2.72497 2.5 3 2.5H15C15.275 2.5 15.5241 2.61103 15.7049 2.79071L9 6.36667L2.29508 2.79071ZM2 4.9V11.5C2 12.0523 2.44772 12.5 3 12.5H15C15.5523 12.5 16 12.0523 16 11.5V4.9L9.4706 8.3824C9.1765 8.5392 8.82353 8.5392 8.52941 8.3824L2 4.9Z" fill="#680cb0"/>
</svg>
