<svg xmlns="http://www.w3.org/2000/svg" width="35" height="35" viewBox="0 0 35 35">
  <g id="icon-social-yt" transform="translate(0.5 0.5)">
    <path id="path" d="M362.49,248.09a17,17,0,1,0-17-17,17,17,0,0,0,17,17" transform="translate(-345.49 -214.09)" fill="none" stroke="#ffc325" stroke-width="1"/>
    <path id="path-2" data-name="path" d="M365.79,231.1l-5.57,3.27v-6.54Zm5.2,3V228a2.87,2.87,0,0,0-2.93-2.93H356.92A2.87,2.87,0,0,0,354,228v6.08a2.87,2.87,0,0,0,2.93,2.93h11.15a2.87,2.87,0,0,0,2.93-2.93" transform="translate(-345.49 -214.09)" fill="#ffc72e"/>
  </g>
</svg>
