<svg xmlns="http://www.w3.org/2000/svg" width="35" height="35" viewBox="0 0 35 35">
  <g id="icon-social-fb" transform="translate(0.5 0.5)">
    <path id="path" d="M217.51,248.09a17,17,0,1,0-17-17,17,17,0,0,0,17,17" transform="translate(-200.51 -214.09)" fill="none" stroke="#ffc72e" stroke-width="1"/>
    <path id="path-2" data-name="path" d="M213.41,228.21h1.76V226.5a4.57,4.57,0,0,1,.57-2.64,3.13,3.13,0,0,1,2.73-1.28,11.05,11.05,0,0,1,3.15.32l-.44,2.61a5.939,5.939,0,0,0-1.42-.21c-.68,0-1.3.25-1.3.93v2h2.8l-.2,2.54h-2.61v8.84h-3.3v-8.84h-1.76Z" transform="translate(-200.51 -214.09)" fill="#ffc72e"/>
  </g>
</svg>
