<?xml version="1.0" encoding="utf-8"?>
<!-- Generator: Adobe Illustrator 24.0.3, SVG Export Plug-In . SVG Version: 6.00 Build 0)  -->
<svg version="1.1" id="Layer_1" xmlns="http://www.w3.org/2000/svg" xmlns:xlink="http://www.w3.org/1999/xlink" x="0px" y="0px"
	 viewBox="0 0 35 35" style="enable-background:new 0 0 35 35;" xml:space="preserve">
<style type="text/css">
	.st0{fill:none;stroke:#FFC72E;}
	.st1{fill:#FFC72E;}
</style>
<g id="icon-social-ig" transform="translate(0.5 0.5)">
	<path id="path" class="st0" d="M17,34c9.4,0,17-7.6,17-17S26.4,0,17,0S0,7.6,0,17l0,0C0,26.4,7.6,34,17,34"/>
	<path class="st1" d="M22.2,8.5H11.8c-1.8,0-3.3,1.5-3.3,3.3v10.4c0,1.8,1.5,3.3,3.3,3.3h10.4c1.8,0,3.3-1.5,3.3-3.3V11.8
		C25.5,10,24,8.5,22.2,8.5z M20.7,10.5h2.5h0.4v2.9h-2.9V10.5z M17.1,14.5c1.4,0,2.6,1.1,2.6,2.6c0,1.4-1.1,2.6-2.6,2.6
		c-1.4,0-2.6-1.1-2.6-2.6C14.5,15.6,15.7,14.5,17.1,14.5z M23.8,22.3c0,0.9-0.7,1.6-1.6,1.6H11.8c-0.9,0-1.6-0.7-1.6-1.6
		c0,0,0,0,0,0v-7h2.5c-1,2.4,0.2,5.1,2.6,6.1c2.4,1,5.1-0.2,6.1-2.6c0.5-1.1,0.5-2.4,0-3.5h2.5V22.3z"/>
</g>
</svg>
