<svg width="16" height="17" viewBox="0 0 16 17" fill="none" xmlns="http://www.w3.org/2000/svg">
<path d="M8.4601 1.79365C10.1849 0.0687888 12.9815 0.0687788 14.7063 1.79365C16.4312 3.51851 16.4312 6.31506 14.7064 8.03992L13.5119 9.2343C13.1064 9.6399 12.4488 9.6399 12.0433 9.2343C11.6377 8.8288 11.6377 8.17123 12.0433 7.76567L13.2377 6.57126C14.1514 5.65752 14.1514 4.17605 13.2377 3.26231C12.3239 2.34856 10.8425 2.34856 9.9287 3.26231L7.35409 5.83693C6.54297 6.64805 6.54297 7.96313 7.35409 8.7743L7.83851 9.2587C8.2441 9.6642 8.2441 10.3218 7.83851 10.7273C7.43295 11.1329 6.7754 11.1329 6.36984 10.7273L5.88542 10.2429C4.26318 8.6207 4.26318 5.99051 5.88542 4.36827L8.4601 1.79365Z" fill="#142345"/>
<path d="M8.1615 6.27267C8.5671 5.86711 9.2246 5.86711 9.6302 6.27267L10.1146 6.75709C11.7368 8.37932 11.7368 11.0095 10.1146 12.6317L7.53994 15.2064C5.81508 16.9312 3.01852 16.9312 1.29365 15.2064C-0.431211 13.4815 -0.431221 10.6849 1.29365 8.9601L2.48806 7.76567C2.89362 7.36011 3.55116 7.36011 3.95672 7.76567C4.36228 8.17123 4.36228 8.8288 3.95672 9.2343L2.76231 10.4287C1.84857 11.3425 1.84857 12.824 2.76231 13.7377C3.67606 14.6514 5.15753 14.6514 6.07128 13.7377L8.6459 11.1631C9.457 10.3519 9.457 9.0369 8.6459 8.22575L8.1615 7.74133C7.75593 7.33577 7.75593 6.67823 8.1615 6.27267Z" fill="#142345"/>
</svg>
