<svg width="17" height="16" viewBox="0 0 17 16" fill="none" xmlns="http://www.w3.org/2000/svg">
<path d="M3.5 2C2.94775 2 2.5 2.44772 2.5 3V13C2.5 13.5523 2.94775 14 3.5 14H13.5C14.0522 14 14.5 13.5523 14.5 13V10C14.5 9.4477 14.9478 9 15.5 9C16.0522 9 16.5 9.4477 16.5 10V13C16.5 14.6569 15.1569 16 13.5 16H3.5C1.84314 16 0.5 14.6569 0.5 13V3C0.5 1.34315 1.84314 0 3.5 0H6.5C7.05225 0 7.5 0.44771 7.5 1C7.5 1.55229 7.05225 2 6.5 2H3.5Z" fill="#858B8F"/>
<path d="M10.5 2C9.9478 2 9.5 1.55229 9.5 1C9.5 0.44771 9.9478 0 10.5 0H15.5C16.0522 0 16.5 0.44771 16.5 1V6C16.5 6.55228 16.0522 7 15.5 7C14.9478 7 14.5 6.55228 14.5 6V3.41421L9.2072 8.7071C8.8165 9.0976 8.18347 9.0976 7.79285 8.7071C7.40234 8.3166 7.40234 7.68342 7.79285 7.29289L13.0858 2H10.5Z" fill="#858B8F"/>
</svg>
