<svg width="14" height="18" viewBox="0 0 14 18" fill="none" xmlns="http://www.w3.org/2000/svg">
<path fill-rule="evenodd" clip-rule="evenodd" d="M4 7C4 5.34315 5.34315 4 7 4C8.6569 4 10 5.34315 10 7C10 8.65685 8.6569 10 7 10C5.34315 10 4 8.65685 4 7ZM7 6C6.44772 6 6 6.44772 6 7C6 7.55228 6.44772 8 7 8C7.5523 8 8 7.55228 8 7C8 6.44772 7.5523 6 7 6Z" fill="#b05500"/>
<path fill-rule="evenodd" clip-rule="evenodd" d="M0 6.77778C0 2.99928 3.16991 0 7 0C10.8301 0 14 2.99928 14 6.77778C14 7.74926 13.7039 8.91667 13.2826 10.0655C12.8542 11.2337 12.2659 12.4642 11.6152 13.587C10.967 14.7052 10.2375 15.7504 9.5151 16.5308C9.1548 16.9201 8.7735 17.2685 8.3828 17.5263C8.0061 17.7749 7.5294 18 7 18C6.47063 18 5.99394 17.7749 5.61717 17.5263C5.22653 17.2685 4.84519 16.9201 4.48485 16.5308C3.76254 15.7504 3.03297 14.7052 2.38482 13.587C1.73408 12.4642 1.14575 11.2337 0.71738 10.0655C0.29614 8.91667 0 7.74926 0 6.77778ZM7 2C4.20267 2 2 4.17432 2 6.77778C2 7.40179 2.20386 8.30989 2.59512 9.3769C2.97925 10.4245 3.51592 11.5501 4.11518 12.5841C4.71703 13.6224 5.36246 14.5346 5.95265 15.1722C6.24856 15.492 6.50784 15.7178 6.71877 15.857C6.88721 15.9682 6.97762 15.993 7 15.9985C7.0224 15.993 7.1128 15.9682 7.2812 15.857C7.4922 15.7178 7.7514 15.492 8.0474 15.1722C8.6375 14.5346 9.283 13.6224 9.8848 12.5841C10.4841 11.5501 11.0208 10.4245 11.4049 9.3769C11.7961 8.30989 12 7.40179 12 6.77778C12 4.17432 9.7973 2 7 2Z" fill="#b05500"/>
</svg>
