<svg width="16" height="16" viewBox="0 0 16 16" fill="none" xmlns="http://www.w3.org/2000/svg">
<path fill-rule="evenodd" clip-rule="evenodd" d="M11.1922 12.6064C10.0236 13.4816 8.5723 14 7 14C3.13401 14 0 10.866 0 7C0 3.13401 3.13401 0 7 0C10.866 0 14 3.13401 14 7C14 8.5723 13.4816 10.0236 12.6064 11.1922L15.7071 14.2929C16.0976 14.6834 16.0976 15.3166 15.7071 15.7071C15.3166 16.0976 14.6834 16.0976 14.2929 15.7071L11.1922 12.6064ZM12 7C12 9.7614 9.7614 12 7 12C4.23858 12 2 9.7614 2 7C2 4.23858 4.23858 2 7 2C9.7614 2 12 4.23858 12 7Z" fill="#292929"/>
</svg>
