<svg width="17" height="15" viewBox="0 0 17 15" fill="none" xmlns="http://www.w3.org/2000/svg">
<path fill-rule="evenodd" clip-rule="evenodd" d="M9.1805 0.267232C8.8891 -0.00340843 8.46493 -0.0755984 8.10035 0.0833816C7.73577 0.242362 7.50007 0.602272 7.50006 1L7.50002 4.05101C5.19481 4.29259 3.46266 5.38047 2.30281 7.05581C1.01816 8.91142 0.5 11.3904 0.5 14C0.5 14.4794 0.84017 14.8913 1.31089 14.982C1.78071 15.0724 2.24864 14.8175 2.42745 14.374L2.42819 14.3721L2.42914 14.3699L2.44124 14.3415C2.45315 14.314 2.47274 14.2699 2.50023 14.2116C2.55528 14.0948 2.64154 13.9219 2.76065 13.7118C2.99998 13.2894 3.36562 12.7275 3.8683 12.169C4.70707 11.237 5.8919 10.3484 7.50006 10.0811V13C7.50006 13.3828 7.71862 13.732 8.06293 13.8994C8.40723 14.0667 8.8169 14.0228 9.1179 13.7863L16.1179 8.28632C16.3478 8.10562 16.4872 7.8334 16.4992 7.54121C16.5113 7.24903 16.3948 6.96621 16.1805 6.76723L9.1805 0.267232ZM8.5001 8.00002C6.06734 8.00002 4.26006 9.03792 3.00683 10.1968C3.23984 9.43662 3.55326 8.76322 3.94719 8.19422C4.87526 6.85369 6.3099 6.00002 8.5 6.00002C9.0523 6.00002 9.5 5.55231 9.5 5.00004V3.2932L13.9622 7.43662L9.5001 10.9425V9.00002C9.5001 8.44772 9.0523 8.00002 8.5001 8.00002Z" fill="white"/>
</svg>
