<svg width="18" height="18" viewBox="0 0 18 18" fill="none" xmlns="http://www.w3.org/2000/svg">
<path fill-rule="evenodd" clip-rule="evenodd" d="M9 0C5.46051 0 2.53458 2.627 2.06561 6.03761C0.89196 6.24322 0 7.26745 0 8.5V10.5C0 11.8807 1.11929 13 2.5 13C3.88071 13 5 11.8807 5 10.5V8.5C5 7.69247 4.61712 6.97436 4.023 6.5173C4.26582 3.98235 6.40141 2 9 2C11.5986 2 13.7342 3.98235 13.977 6.5173C13.3829 6.97436 13 7.69247 13 8.5V10.5C13 11.214 13.2993 11.8581 13.7793 12.3136C13.3096 13.6652 12.1353 14.6871 10.6961 14.9396C10.3425 14.3753 9.7151 14 9 14C7.89543 14 7 14.8954 7 16C7 17.1046 7.89543 18 9 18C9.7597 18 10.4206 17.5764 10.7591 16.9524C13.0382 16.6647 14.919 15.0985 15.6604 12.9949C16.9664 12.9123 18 11.8268 18 10.5V8.5C18 7.26745 17.108 6.24322 15.9344 6.03761C15.4654 2.627 12.5395 0 9 0ZM15.5 11C15.7761 11 16 10.7761 16 10.5V8.5C16 8.22386 15.7761 8 15.5 8C15.2239 8 15 8.22386 15 8.5V10.5C15 10.7761 15.2239 11 15.5 11ZM2.5 8C2.22386 8 2 8.22386 2 8.5V10.5C2 10.7761 2.22386 11 2.5 11C2.77614 11 3 10.7761 3 10.5V8.5C3 8.22386 2.77614 8 2.5 8Z" fill="#F9F8F4"/>
</svg>
