<svg width="16" height="16" viewBox="0 0 16 16" fill="none" xmlns="http://www.w3.org/2000/svg">
<path fill-rule="evenodd" clip-rule="evenodd" d="M8 0C12.4183 0 16 3.58172 16 8C16 12.4183 12.4183 16 8 16C3.58172 16 0 12.4183 0 8C0 3.58172 3.58172 0 8 0ZM8 2C4.68629 2 2 4.68629 2 8C2 11.3137 4.68629 14 8 14C11.3137 14 14 11.3137 14 8C14 4.68629 11.3137 2 8 2ZM8 3C8.51285 3 8.93551 3.38604 8.99327 3.88338L9 4V7H11C11.5523 7 12 7.44772 12 8C12 8.51285 11.614 8.93551 11.1166 8.99327L11 9H8C7.48717 9 7.06449 8.61397 7.00673 8.11662L7 8V4C7 3.44772 7.44772 3 8 3Z" fill="#1c0c4b"/>
</svg>
