<svg width="60" height="57" viewBox="0 0 60 57" fill="none" xmlns="http://www.w3.org/2000/svg">
<path d="M59.2595 22.3981C59.2714 22.3094 59.2714 22.2196 59.2595 22.1309C59.2398 22.0394 59.2115 21.9499 59.1749 21.8637C59.1749 21.8637 59.1749 21.8637 59.1749 21.7933L50.7156 6.39282C50.6313 6.26018 50.5266 6.14154 50.4055 6.04121L50.3068 5.95682C50.1952 5.87667 50.0714 5.81494 49.9402 5.77398C49.7686 5.69307 49.58 5.65448 49.3903 5.66147H33.656V4.03C33.656 2.97064 33.2342 1.95468 32.4833 1.20561C31.7324 0.456531 30.7139 0.0357056 29.652 0.0357056C28.59 0.0357056 27.5716 0.456531 26.8207 1.20561C26.0697 1.95468 25.6479 2.97064 25.6479 4.03V5.66147H9.68801C9.53559 5.68421 9.38795 5.73172 9.25094 5.80211C9.1074 5.87705 8.98222 5.98271 8.88437 6.11153L8.79978 6.22404L8.71519 6.33656L0.255886 21.8074C0.255886 21.8074 0.255886 21.8074 0.255886 21.8777C0.21934 21.964 0.191017 22.0534 0.171293 22.1449C0.159459 22.2336 0.159459 22.3235 0.171293 22.4122C0.135525 22.4604 0.0927602 22.5031 0.0444033 22.5388V29.9366C-0.00624759 31.286 0.216448 32.6318 0.699171 33.8934C1.18189 35.155 1.91473 36.3065 2.85384 37.279C3.79294 38.2516 4.91904 39.0252 6.16476 39.5536C7.41049 40.082 8.75025 40.3544 10.1039 40.3544C11.4576 40.3544 12.7974 40.082 14.0431 39.5536C15.2888 39.0252 16.4149 38.2516 17.354 37.279C18.2931 36.3065 19.026 35.155 19.5087 33.8934C19.9914 32.6318 20.2141 31.286 20.1634 29.9366V22.5388C20.1634 22.5388 20.1634 22.5388 20.1634 22.4684C20.1768 22.3751 20.1768 22.2804 20.1634 22.1871C20.1417 22.0962 20.1134 22.0069 20.0788 21.9199C20.0788 21.9199 20.0788 21.9199 20.0788 21.8496L12.3527 8.47435H25.6479V48.8111H11.6759C11.302 48.8111 10.9434 48.9592 10.679 49.223C10.4146 49.4868 10.2661 49.8445 10.2661 50.2175V55.3791C10.2661 55.7521 10.4146 56.1099 10.679 56.3736C10.9434 56.6374 11.302 56.7856 11.6759 56.7856H47.628C48.0019 56.7856 48.3605 56.6374 48.6249 56.3736C48.8893 56.1099 49.0379 55.7521 49.0379 55.3791V50.2175C49.0379 49.8445 48.8893 49.4868 48.6249 49.223C48.3605 48.9592 48.0019 48.8111 47.628 48.8111H33.656V8.47435H46.9512L39.3238 21.7793C39.3238 21.7793 39.3238 21.7793 39.3238 21.8496C39.2829 21.9342 39.2545 22.0242 39.2392 22.1168C39.2259 22.2101 39.2259 22.3048 39.2392 22.3981C39.2392 22.3981 39.2392 22.3981 39.2392 22.4684V29.8663C39.1885 31.2157 39.4112 32.5615 39.8939 33.8231C40.3767 35.0846 41.1095 36.2361 42.0486 37.2087C42.9877 38.1812 44.1138 38.9549 45.3595 39.4833C46.6053 40.0117 47.945 40.284 49.2987 40.284C50.6524 40.284 51.9921 40.0117 53.2379 39.4833C54.4836 38.9549 55.6097 38.1812 56.5488 37.2087C57.4879 36.2361 58.2207 35.0846 58.7034 33.8231C59.1862 32.5615 59.4089 31.2157 59.3582 29.8663V22.5388C59.3188 22.4968 59.2855 22.4494 59.2595 22.3981ZM9.91359 9.95111L16.3286 21.1323H3.83699L9.91359 9.95111ZM17.3155 29.8663C17.3917 30.8592 17.2614 31.8572 16.9329 32.7975C16.6043 33.7379 16.0845 34.6004 15.4061 35.3309C14.7277 36.0615 13.9053 36.6443 12.9904 37.0429C12.0756 37.4415 11.0881 37.6473 10.0898 37.6473C9.09154 37.6473 8.10403 37.4415 7.1892 37.0429C6.27438 36.6443 5.45197 36.0615 4.77356 35.3309C4.09515 34.6004 3.57536 33.7379 3.24679 32.7975C2.91822 31.8572 2.78796 30.8592 2.86417 29.8663V23.9452H17.3437L17.3155 29.8663ZM28.4677 4.03C28.4677 3.71667 28.5924 3.41617 28.8145 3.19461C29.0366 2.97306 29.3379 2.84859 29.652 2.84859C29.9661 2.84859 30.2673 2.97306 30.4894 3.19461C30.7115 3.41617 30.8363 3.71667 30.8363 4.03V5.66147H28.4677V4.03ZM46.2181 53.9727H13.0858V51.6239H46.2181V53.9727ZM30.8363 48.8111H28.4677V8.47435H30.8363V48.8111ZM49.3903 9.95111L55.4669 21.1323H42.9754L49.3903 9.95111ZM56.4398 29.8663C56.4829 30.8415 56.3276 31.8154 55.9832 32.7291C55.6389 33.6429 55.1126 34.4775 54.436 35.1829C53.7595 35.8882 52.9468 36.4495 52.0469 36.833C51.147 37.2165 50.1786 37.4142 49.2 37.4142C48.2214 37.4142 47.253 37.2165 46.3531 36.833C45.4532 36.4495 44.6405 35.8882 43.964 35.1829C43.2874 34.4775 42.7611 33.6429 42.4168 32.7291C42.0724 31.8154 41.9171 30.8415 41.9602 29.8663V23.9452H56.4398V29.8663Z" fill="#142345"/>
</svg>
