<svg width="18" height="19" viewBox="0 0 18 19" fill="none" xmlns="http://www.w3.org/2000/svg">
<path fill-rule="evenodd" clip-rule="evenodd" d="M0 9.5C0 14.4706 4.02944 18.5 9 18.5C13.9706 18.5 18 14.4706 18 9.5C18 4.52944 13.9706 0.5 9 0.5C4.02944 0.5 0 4.52944 0 9.5ZM7.57721 16.3553C8.03662 16.4502 8.51249 16.5 9 16.5C9.4875 16.5 9.9634 16.4502 10.4228 16.3553C10.5287 16.0541 10.648 15.682 10.7676 15.2434C10.9712 14.4969 11.1756 13.5581 11.3165 12.4484C10.5802 12.4802 9.8002 12.5 9 12.5C8.19979 12.5 7.41978 12.4802 6.68345 12.4484C6.82438 13.5581 7.02878 14.4969 7.23238 15.2434C7.35198 15.682 7.47128 16.0541 7.57721 16.3553ZM6.57862 11.4428C6.52893 10.8359 6.5 10.1874 6.5 9.5C6.5 8.81257 6.52893 8.16406 6.57862 7.55719C7.34517 7.52219 8.16172 7.5 9 7.5C9.8383 7.5 10.6548 7.52219 11.4214 7.55719C11.4711 8.16406 11.5 8.81257 11.5 9.5C11.5 10.1874 11.4711 10.8359 11.4214 11.4428C10.6548 11.4778 9.8383 11.5 9 11.5C8.16172 11.5 7.34517 11.4778 6.57862 11.4428ZM12.3305 12.3962C12.1831 13.6333 11.9582 14.6787 11.7324 15.5066C11.6843 15.6829 11.6362 15.8494 11.5887 16.0057C13.3595 15.3005 14.7746 13.8932 15.4901 12.1276C15.1556 12.1647 14.7528 12.2064 14.2953 12.2479C13.7189 12.3003 13.0549 12.3528 12.3305 12.3962ZM15.8203 11.083C15.4342 11.1292 14.8805 11.1906 14.2047 11.2521C13.6789 11.2999 13.0799 11.3476 12.4288 11.3883C12.474 10.7947 12.5 10.1645 12.5 9.5C12.5 8.83549 12.474 8.20532 12.4288 7.61172C13.0799 7.65239 13.6789 7.70015 14.2047 7.74795C14.8805 7.80938 15.4342 7.87078 15.8203 7.91702C15.9379 8.42569 16 8.95559 16 9.5C16 10.0444 15.9379 10.5743 15.8203 11.083ZM5.5712 11.3883C4.92014 11.3476 4.32106 11.2999 3.79527 11.2521C3.11947 11.1906 2.5658 11.1292 2.17974 11.083C2.06215 10.5743 2 10.0444 2 9.5C2 8.95559 2.06215 8.42569 2.17974 7.91702C2.5658 7.87078 3.11947 7.80938 3.79527 7.74795C4.32106 7.70015 4.92014 7.65239 5.5712 7.61173C5.52597 8.20532 5.5 8.83549 5.5 9.5C5.5 10.1645 5.52597 10.7947 5.5712 11.3883ZM2.50989 12.1276C2.84439 12.1647 3.24718 12.2064 3.70473 12.2479C4.28107 12.3003 4.94505 12.3528 5.66948 12.3962C5.81692 13.6333 6.04183 14.6787 6.26762 15.5066C6.3157 15.6829 6.36384 15.8494 6.41127 16.0057C4.64047 15.3005 3.22541 13.8932 2.50989 12.1276ZM9 6.5C9.8002 6.5 10.5802 6.51981 11.3165 6.55155C11.1756 5.44191 10.9712 4.5031 10.7676 3.75656C10.648 3.31802 10.5287 2.94594 10.4228 2.64469C9.9634 2.54984 9.4875 2.5 9 2.5C8.51249 2.5 8.03662 2.54984 7.57721 2.64469C7.47128 2.94594 7.35198 3.31802 7.23238 3.75656C7.02878 4.5031 6.82438 5.44191 6.68345 6.55156C7.41978 6.51981 8.19979 6.5 9 6.5ZM14.2953 6.75205C14.7528 6.79365 15.1556 6.83526 15.4901 6.87237C14.7746 5.1068 13.3595 3.6995 11.5887 2.99426C11.6362 3.15065 11.6843 3.31712 11.7324 3.49344C11.9582 4.32134 12.1831 5.36665 12.3305 6.60385C13.0549 6.64722 13.7189 6.69966 14.2953 6.75205ZM6.26762 3.49344C6.04183 4.32134 5.81692 5.36665 5.66948 6.60385C4.94505 6.64722 4.28107 6.69966 3.70473 6.75205C3.24718 6.79365 2.84439 6.83526 2.50989 6.87237C3.22542 5.1068 4.64047 3.6995 6.41127 2.99426C6.36384 3.15065 6.31571 3.31712 6.26762 3.49344Z" fill="#1C0C4B"/>
</svg>
