<svg width="20" height="16" viewBox="0 0 20 16" fill="none" xmlns="http://www.w3.org/2000/svg">
<path fill-rule="evenodd" clip-rule="evenodd" d="M10 0C6.78 0 2.60066 0.810386 2.60066 0.810386L2.59014 0.822459C1.12359 1.05805 0 2.32387 0 3.86329V12.1352C0.00295634 13.6555 1.10408 14.947 2.59766 15.1836L2.60066 15.1881C2.60066 15.1881 6.78 16 10 16C13.22 16 17.3993 15.1881 17.3993 15.1881C18.8961 14.9505 19.9984 13.6571 20 12.1367V3.86329C19.9978 2.34395 18.8965 1.05157 17.4023 0.814913C17.3993 0.810386 13.22 0 10 0ZM8 4.5L14 8L8 11.5V4.5Z" fill="#142345"/>
</svg>
